<?xml version="1.0" encoding="UTF-8"?>
<svg version="1.1" xmlns="http://www.w3.org/2000/svg" width="594" height="594">
<path d="M0 0 C0.92292343 -0.00701431 1.84584686 -0.01402863 2.79673767 -0.02125549 C5.77079162 -0.03871734 8.74464662 -0.0451107 11.71875 -0.046875 C12.73284943 -0.04754974 13.74694885 -0.04822449 14.79177856 -0.04891968 C29.8096797 -0.03301577 44.43134779 0.33463763 59.21875 3.203125 C60.12947266 3.37473145 61.04019531 3.54633789 61.97851562 3.72314453 C104.71295276 12.00793926 145.67738753 32.61777351 173.21875 67.203125 C173.98445313 68.14285156 174.75015625 69.08257812 175.5390625 70.05078125 C199.01683621 99.32637822 212.36203905 136.62280712 219.21875 173.203125 C219.40518066 174.17491699 219.59161133 175.14670898 219.78369141 176.14794922 C220.36050819 179.18461987 220.91981319 182.22379638 221.46875 185.265625 C221.71419556 186.62131592 221.71419556 186.62131592 221.96459961 188.00439453 C223.16959874 195.04395697 223.76325388 202.07857163 224.21875 209.203125 C224.80011215 209.19424255 225.3814743 209.18536011 225.98045349 209.1762085 C232.06426095 209.08730007 238.14788203 209.02721133 244.23217773 208.98339844 C246.49885563 208.96335793 248.76548232 208.93611789 251.03198242 208.90136719 C254.30139856 208.85251632 257.57012757 208.83007988 260.83984375 208.8125 C261.84333359 208.79185486 262.84682343 208.77120972 263.88072205 208.74993896 C272.17536186 208.7473294 279.48176496 210.86385066 285.8046875 216.515625 C293.86720863 226.13719718 295.09322591 236.12057761 294.21875 248.203125 C291.47103109 259.96336194 283.51483923 267.0561272 274.26737595 274.14641953 C247.92960159 294.12656929 247.92960159 294.12656929 233.53222656 322.45019531 C232.63217243 337.11173554 236.59457124 351.9221819 240.05911255 366.08547974 C243.001297 378.23691426 244.78596558 390.38612136 246.25 402.796875 C246.3647744 403.76715574 246.4795488 404.73743649 246.59780121 405.73711967 C247.17464799 410.64433089 247.73929306 415.55284648 248.29821777 420.46212769 C249.25380712 428.80762614 250.31341715 437.1398865 251.36965179 445.47312737 C251.70023568 448.0904061 252.02701421 450.7081299 252.35235596 453.32606506 C253.2569036 460.60079822 254.16746994 467.87409927 255.13798141 475.14037037 C255.52337691 478.02888625 255.90173793 480.91830586 256.27973175 483.80779839 C256.53366614 485.72451716 256.79848799 487.63978425 257.06390381 489.5549469 C258.59689683 501.30629842 259.50269285 513.71318491 256.65625 525.328125 C256.39171021 526.44477539 256.39171021 526.44477539 256.12182617 527.58398438 C253.0246992 539.7181827 247.20883163 549.46407531 238.21875 558.203125 C237.59355469 558.84894531 236.96835937 559.49476563 236.32421875 560.16015625 C224.67797302 571.41410739 208.42788841 574.74003607 192.78393555 574.62060547 C173.5814848 574.04729035 154.00441411 565.03991998 140.41796875 551.39453125 C139.89847656 550.83636719 139.37898438 550.27820313 138.84375 549.703125 C130.86585681 541.35552456 118.50273971 533.960687 106.9296875 532.90234375 C97.74093494 532.70166984 90.75890182 533.65260633 83.21875 539.203125 C81.63062442 540.74561034 80.13062737 542.34805536 78.62890625 543.97460938 C62.87040136 560.97525524 38.68002064 573.68090966 15.31298828 574.72705078 C-6.10459296 575.07032303 -28.72882473 566.29358718 -44.78125 552.203125 C-45.98539008 551.01137319 -47.17494311 549.80454913 -48.34375 548.578125 C-57.22435927 539.33285303 -69.10228693 534.13433172 -81.84375 533.703125 C-97.58923408 534.1902781 -107.5890301 543.2326494 -118.37890625 553.73046875 C-134.62996129 569.26350958 -152.42289291 574.83539971 -174.58984375 574.55078125 C-182.62548447 574.2579747 -189.4228121 572.31498776 -196.78125 569.203125 C-197.7196875 568.81898438 -198.658125 568.43484375 -199.625 568.0390625 C-212.76352566 562.07806475 -223.20567097 551.49340942 -228.75 538.17578125 C-234.5103829 521.57104115 -232.81852619 505.43637694 -230.83764648 488.34350586 C-230.62844123 486.48758565 -230.41994504 484.63158541 -230.21209717 482.7755127 C-229.76634839 478.80772632 -229.31584851 474.84051988 -228.86157036 470.8737011 C-228.14339754 464.6006377 -227.43718072 458.32626262 -226.73268127 452.051651 C-225.23717975 438.74693692 -223.72861003 425.44371608 -222.21875 412.140625 C-220.58494321 397.74494885 -218.95343191 383.34903394 -217.33685356 368.95141131 C-216.63597885 362.71327457 -215.92762167 356.47604683 -215.21351802 350.23941123 C-214.77172791 346.36761942 -214.33628406 342.49513317 -213.90257263 338.62242889 C-213.70007758 336.82620714 -213.49492332 335.03028289 -213.28692818 333.23468971 C-213.00360308 330.78565172 -212.72975951 328.33573109 -212.45823669 325.88536072 C-212.37361394 325.17408537 -212.28899118 324.46281003 -212.2018041 323.72998089 C-211.79987107 320.00390561 -211.68205402 316.80762271 -212.78125 313.203125 C-214.67642244 310.77025712 -214.67642244 310.77025712 -217.17407227 308.45141602 C-218.1091713 307.53598526 -219.04427032 306.6205545 -220.00770569 305.67738342 C-220.51067736 305.19413164 -221.01364902 304.71087986 -221.53186226 304.21298409 C-223.11974306 302.68578855 -224.69358514 301.14531401 -226.26438904 299.60057068 C-230.73234847 295.21174476 -235.22469742 290.84821513 -239.72485352 286.49243164 C-242.48186721 283.82199896 -245.22317594 281.13618029 -247.95643425 278.44145012 C-248.99053958 277.4281767 -250.03040822 276.42074411 -251.07657051 275.41992378 C-261.44678222 265.497828 -270.87548322 253.39886809 -271.28125 238.453125 C-271.12806542 229.36736453 -267.6127728 223.68424276 -261.21875 217.453125 C-248.24298105 207.46896086 -236.7165694 207.42501733 -220.96875 207.828125 C-218.90824237 207.85828114 -216.84769191 207.8856469 -214.78710938 207.91015625 C-209.78408193 207.97566007 -204.78314889 208.07886609 -199.78125 208.203125 C-199.73734131 207.4205835 -199.69343262 206.63804199 -199.64819336 205.83178711 C-196.34337224 155.18418159 -173.02508527 100.31707626 -139.78125 62.203125 C-139.10191406 61.40390625 -138.42257813 60.6046875 -137.72265625 59.78125 C-127.40440895 47.93641709 -115.9918562 38.58438975 -102.78125 30.203125 C-102.16330566 29.80883301 -101.54536133 29.41454102 -100.90869141 29.00830078 C-71.90745392 10.8292305 -34.17456119 0.17329557 0 0 Z " fill="#FEFEFE" transform="translate(284.78125,9.796875)"/>
<path d="M0 0 C0.92292343 -0.00701431 1.84584686 -0.01402863 2.79673767 -0.02125549 C5.77079162 -0.03871734 8.74464662 -0.0451107 11.71875 -0.046875 C12.73284943 -0.04754974 13.74694885 -0.04822449 14.79177856 -0.04891968 C29.8096797 -0.03301577 44.43134779 0.33463763 59.21875 3.203125 C60.12947266 3.37473145 61.04019531 3.54633789 61.97851562 3.72314453 C104.71295276 12.00793926 145.67738753 32.61777351 173.21875 67.203125 C173.98445313 68.14285156 174.75015625 69.08257812 175.5390625 70.05078125 C199.01683621 99.32637822 212.36203905 136.62280712 219.21875 173.203125 C219.40518066 174.17491699 219.59161133 175.14670898 219.78369141 176.14794922 C220.36050819 179.18461987 220.91981319 182.22379638 221.46875 185.265625 C221.71419556 186.62131592 221.71419556 186.62131592 221.96459961 188.00439453 C223.16959874 195.04395697 223.76325388 202.07857163 224.21875 209.203125 C224.80011215 209.19424255 225.3814743 209.18536011 225.98045349 209.1762085 C232.06426095 209.08730007 238.14788203 209.02721133 244.23217773 208.98339844 C246.49885563 208.96335793 248.76548232 208.93611789 251.03198242 208.90136719 C254.30139856 208.85251632 257.57012757 208.83007988 260.83984375 208.8125 C261.84333359 208.79185486 262.84682343 208.77120972 263.88072205 208.74993896 C272.17536186 208.7473294 279.48176496 210.86385066 285.8046875 216.515625 C293.86720863 226.13719718 295.09322591 236.12057761 294.21875 248.203125 C291.47103109 259.96336194 283.51483923 267.0561272 274.26737595 274.14641953 C247.92960159 294.12656929 247.92960159 294.12656929 233.53222656 322.45019531 C232.63217243 337.11173554 236.59457124 351.9221819 240.05911255 366.08547974 C243.001297 378.23691426 244.78596558 390.38612136 246.25 402.796875 C246.3647744 403.76715574 246.4795488 404.73743649 246.59780121 405.73711967 C247.17464799 410.64433089 247.73929306 415.55284648 248.29821777 420.46212769 C249.25380712 428.80762614 250.31341715 437.1398865 251.36965179 445.47312737 C251.70023568 448.0904061 252.02701421 450.7081299 252.35235596 453.32606506 C253.2569036 460.60079822 254.16746994 467.87409927 255.13798141 475.14037037 C255.52337691 478.02888625 255.90173793 480.91830586 256.27973175 483.80779839 C256.53366614 485.72451716 256.79848799 487.63978425 257.06390381 489.5549469 C258.59689683 501.30629842 259.50269285 513.71318491 256.65625 525.328125 C256.39171021 526.44477539 256.39171021 526.44477539 256.12182617 527.58398438 C253.0246992 539.7181827 247.20883163 549.46407531 238.21875 558.203125 C237.59355469 558.84894531 236.96835937 559.49476563 236.32421875 560.16015625 C224.67797302 571.41410739 208.42788841 574.74003607 192.78393555 574.62060547 C173.5814848 574.04729035 154.00441411 565.03991998 140.41796875 551.39453125 C139.89847656 550.83636719 139.37898438 550.27820313 138.84375 549.703125 C130.86585681 541.35552456 118.50273971 533.960687 106.9296875 532.90234375 C97.74093494 532.70166984 90.75890182 533.65260633 83.21875 539.203125 C81.63062442 540.74561034 80.13062737 542.34805536 78.62890625 543.97460938 C62.87040136 560.97525524 38.68002064 573.68090966 15.31298828 574.72705078 C-6.10459296 575.07032303 -28.72882473 566.29358718 -44.78125 552.203125 C-45.98539008 551.01137319 -47.17494311 549.80454913 -48.34375 548.578125 C-57.22435927 539.33285303 -69.10228693 534.13433172 -81.84375 533.703125 C-97.58923408 534.1902781 -107.5890301 543.2326494 -118.37890625 553.73046875 C-134.62996129 569.26350958 -152.42289291 574.83539971 -174.58984375 574.55078125 C-182.62548447 574.2579747 -189.4228121 572.31498776 -196.78125 569.203125 C-197.7196875 568.81898438 -198.658125 568.43484375 -199.625 568.0390625 C-212.76352566 562.07806475 -223.20567097 551.49340942 -228.75 538.17578125 C-234.5103829 521.57104115 -232.81852619 505.43637694 -230.83764648 488.34350586 C-230.62844123 486.48758565 -230.41994504 484.63158541 -230.21209717 482.7755127 C-229.76634839 478.80772632 -229.31584851 474.84051988 -228.86157036 470.8737011 C-228.14339754 464.6006377 -227.43718072 458.32626262 -226.73268127 452.051651 C-225.23717975 438.74693692 -223.72861003 425.44371608 -222.21875 412.140625 C-220.58494321 397.74494885 -218.95343191 383.34903394 -217.33685356 368.95141131 C-216.63597885 362.71327457 -215.92762167 356.47604683 -215.21351802 350.23941123 C-214.77172791 346.36761942 -214.33628406 342.49513317 -213.90257263 338.62242889 C-213.70007758 336.82620714 -213.49492332 335.03028289 -213.28692818 333.23468971 C-213.00360308 330.78565172 -212.72975951 328.33573109 -212.45823669 325.88536072 C-212.37361394 325.17408537 -212.28899118 324.46281003 -212.2018041 323.72998089 C-211.79987107 320.00390561 -211.68205402 316.80762271 -212.78125 313.203125 C-214.67642244 310.77025712 -214.67642244 310.77025712 -217.17407227 308.45141602 C-218.1091713 307.53598526 -219.04427032 306.6205545 -220.00770569 305.67738342 C-220.51067736 305.19413164 -221.01364902 304.71087986 -221.53186226 304.21298409 C-223.11974306 302.68578855 -224.69358514 301.14531401 -226.26438904 299.60057068 C-230.73234847 295.21174476 -235.22469742 290.84821513 -239.72485352 286.49243164 C-242.48186721 283.82199896 -245.22317594 281.13618029 -247.95643425 278.44145012 C-248.99053958 277.4281767 -250.03040822 276.42074411 -251.07657051 275.41992378 C-261.44678222 265.497828 -270.87548322 253.39886809 -271.28125 238.453125 C-271.12806542 229.36736453 -267.6127728 223.68424276 -261.21875 217.453125 C-248.24298105 207.46896086 -236.7165694 207.42501733 -220.96875 207.828125 C-218.90824237 207.85828114 -216.84769191 207.8856469 -214.78710938 207.91015625 C-209.78408193 207.97566007 -204.78314889 208.07886609 -199.78125 208.203125 C-199.73734131 207.4205835 -199.69343262 206.63804199 -199.64819336 205.83178711 C-196.34337224 155.18418159 -173.02508527 100.31707626 -139.78125 62.203125 C-139.10191406 61.40390625 -138.42257813 60.6046875 -137.72265625 59.78125 C-127.40440895 47.93641709 -115.9918562 38.58438975 -102.78125 30.203125 C-102.16330566 29.80883301 -101.54536133 29.41454102 -100.90869141 29.00830078 C-71.90745392 10.8292305 -34.17456119 0.17329557 0 0 Z M-52.78125 54.203125 C-53.44608398 54.44144043 -54.11091797 54.67975586 -54.79589844 54.92529297 C-96.39147249 69.88942911 -119.77254131 103.26010648 -137.99707031 141.79541016 C-147.16821519 161.65070605 -153.92585959 183.34807177 -155.78125 205.203125 C-155.89082031 206.40324219 -156.00039062 207.60335937 -156.11328125 208.83984375 C-157.18973052 223.26426399 -156.8460582 237.75089737 -156.78125 252.203125 C-174.60125 252.203125 -192.42125 252.203125 -210.78125 252.203125 C-208.93042427 255.90477646 -207.61226562 257.57639971 -204.69873047 260.35400391 C-203.85800995 261.16229645 -203.01728943 261.97058899 -202.15109253 262.80337524 C-201.24271637 263.67005829 -200.33434021 264.53674133 -199.3984375 265.4296875 C-197.97827131 266.80928938 -196.5581345 268.18892306 -195.13975716 269.570364 C-191.6473997 272.97148413 -188.1483104 276.3647551 -184.61572266 279.72412109 C-182.63279794 281.610958 -180.66401426 283.51060416 -178.70901489 285.42636108 C-176.87024794 287.22767267 -175.01227105 289.00963289 -173.1335144 290.76919556 C-166.2340074 297.60907977 -166.2340074 297.60907977 -166.18847656 303.58447266 C-166.34058883 305.12917998 -166.53501893 306.67060122 -166.78125 308.203125 C-166.90242188 309.49734375 -167.02359375 310.7915625 -167.1484375 312.125 C-167.31601563 313.38828125 -167.48359375 314.6515625 -167.65625 315.953125 C-168.61036285 323.42038911 -169.32747339 330.89180535 -169.90771484 338.39746094 C-170.34478451 343.60029027 -170.99048067 348.74931234 -171.7610178 353.91142559 C-173.7393334 367.20513597 -175.2079005 380.53947557 -176.62890625 393.90234375 C-176.88854215 396.31789112 -177.14851309 398.7334025 -177.40879822 401.14888 C-178.08686876 407.44933654 -178.76065428 413.75024363 -179.43341064 420.05126953 C-180.11525043 426.43092886 -180.80086156 432.81018263 -181.48632812 439.18945312 C-182.25953629 446.38573967 -183.0324715 453.58205305 -183.80201721 460.7787323 C-184.97203574 471.71547297 -186.15379098 482.65057506 -187.37815857 493.58137512 C-189.74220377 508.82246822 -189.74220377 508.82246822 -187.40625 523.640625 C-182.45632761 528.4726921 -176.76757661 531.44606116 -169.78125 531.765625 C-157.27310292 531.02179153 -148.70740965 523.26647878 -140.34375 514.703125 C-126.26951804 500.32970007 -107.87050877 491.48869578 -87.734375 491 C-85.50004479 490.97892141 -83.26565591 490.9634218 -81.03125 490.953125 C-79.37609375 490.9221875 -79.37609375 490.9221875 -77.6875 490.890625 C-66.68743855 490.83898152 -56.90037614 493.24771668 -46.90625 497.765625 C-46.14304443 498.10932129 -45.37983887 498.45301758 -44.59350586 498.80712891 C-34.50989474 503.5274753 -26.11294365 509.90866021 -18.03125 517.515625 C-13.29003477 521.93845206 -8.79396992 524.81970449 -2.78125 527.203125 C-1.79898438 527.6053125 -0.81671875 528.0075 0.1953125 528.421875 C6.60306992 530.82275626 11.54350996 531.88112112 18.21875 530.203125 C18.91097656 530.03683594 19.60320312 529.87054687 20.31640625 529.69921875 C31.55962074 526.45480658 41.93711816 520.31057607 49.46875 511.390625 C59.38564429 499.89309035 73.44517724 491.81492519 88.69335938 490.37304688 C118.18425462 488.3887407 141.60575022 494.76082318 164.21875 514.203125 C166.07747591 515.92738988 167.93154456 517.65668694 169.78125 519.390625 C177.10685784 526.11695886 184.50979893 530.58192583 194.59375 531.515625 C200.29225386 531.02437467 205.31221336 529.95914559 209.59375 526.015625 C216.97739849 513.23623338 214.34039884 498.90027532 212.40625 484.828125 C212.22030403 483.42225764 212.03542713 482.0162485 211.8515625 480.61010742 C211.57339058 478.48449626 211.29447925 476.35901173 211.0118103 474.23399353 C210.18304311 468.00165143 209.44433489 461.76063801 208.71875 455.515625 C207.49727985 445.11567912 206.07897359 434.7469852 204.57617188 424.3840332 C203.77714846 418.76659615 203.10905228 413.19343498 202.7265625 407.53125 C202.45403268 403.59772643 202.02846132 399.81392484 201.26953125 395.9453125 C199.95950979 389.23674463 199.32932503 382.4670218 198.64370728 375.67346191 C196.98867506 359.32690806 194.93505321 343.06144655 192.56472778 326.8037262 C192.27109931 324.66765721 192.03088999 322.52988635 191.79321289 320.38696289 C191.46137962 317.53149274 190.88277929 314.92690359 190.06420898 312.17358398 C188.91465047 307.55468191 188.51807106 303.73577735 190.21875 299.203125 C195.82825287 290.85068956 203.6493352 284.07601176 211.01037598 277.29211426 C214.29588416 274.24492299 217.51951059 271.1325458 220.75251102 268.02988338 C223.2642477 265.62169581 225.78389683 263.22421229 228.33213806 260.85462952 C229.23629959 260.0087175 230.14046112 259.16280548 231.07202148 258.29125977 C231.87445786 257.5475563 232.67689423 256.80385284 233.50364685 256.03761292 C235.44639607 254.37819281 235.44639607 254.37819281 235.21875 252.203125 C218.05875 252.203125 200.89875 252.203125 183.21875 252.203125 C183.21875 247.253125 183.21875 242.303125 183.21875 237.203125 C180.96302187 183.3686581 169.70976686 126.15656651 131.21875 86.203125 C130.25582031 85.14544922 130.25582031 85.14544922 129.2734375 84.06640625 C105.05713131 58.2251964 71.02838201 48.95311622 37.21875 44.203125 C36.47874756 44.09709961 35.73874512 43.99107422 34.97631836 43.88183594 C5.67865618 40.13053476 -25.19633213 43.91351278 -52.78125 54.203125 Z " fill="#030101" transform="translate(284.78125,9.796875)"/>
<path d="M0 0 C8.44628127 7.77787052 14.5339962 18.92389863 15.5234375 30.4296875 C15.91147756 44.54837572 12.0589087 56.70833751 2.25 67.25 C-8.68082035 76.82455903 -19.12413922 80.64124046 -33.56640625 80.4609375 C-45.64214638 79.66082711 -56.10138457 74.70205599 -64.75 66.25 C-74.10328519 54.39609358 -77.85883383 42.23509723 -76.75 27.25 C-73.92835215 13.34573531 -66.24517017 3.24664012 -54.75 -4.75 C-37.77240336 -15.69526377 -15.2424095 -12.00297124 0 0 Z " fill="#010101" transform="translate(408.75,152.75)"/>
<path d="M0 0 C7.58816435 5.36898421 13.03023089 11.60849091 16.8984375 20.05078125 C17.69507813 21.59765625 17.69507813 21.59765625 18.5078125 23.17578125 C20.47752505 27.83248608 20.3375508 32.43919134 20.2734375 37.42578125 C20.28503906 38.32039063 20.29664063 39.215 20.30859375 40.13671875 C20.25469039 52.49855635 15.17714499 62.67478922 6.8984375 71.73828125 C-3.62987352 81.78478821 -16.02132557 84.47455722 -30.25390625 84.3203125 C-42.94042126 83.43161246 -53.088708 76.93457741 -61.4140625 67.55078125 C-69.11323204 57.20055745 -72.81059204 44.89079452 -71.1015625 32.05078125 C-68.5843254 19.33210959 -62.58694949 8.76834932 -52.1015625 1.05078125 C-51.46347656 0.57898438 -50.82539063 0.1071875 -50.16796875 -0.37890625 C-35.13164155 -10.60481892 -15.04438115 -9.33989215 0 0 Z " fill="#010101" transform="translate(241.1015625,148.94921875)"/>
<path d="M0 0 C4.20290999 2.58056776 7.16264003 6.08566835 10 10.0625 C13.37091918 14.68420761 16.58932554 18.25781004 22.3515625 19.51171875 C29.40362801 20.0029617 33.77299509 17.51945771 39 13 C41.71046755 10.41433095 44.3462541 7.78302975 46.93359375 5.07421875 C49.80294821 2.19401607 50.64652282 2.03476825 54.8125 1.625 C58.45869525 1.64488834 58.92035679 1.93391308 61.9375 4.4375 C62.618125 5.283125 63.29875 6.12875 64 7 C64.495 7.495 64.495 7.495 65 8 C65.79385773 12.04145755 65.72966113 15.58431196 63.82421875 19.28125 C55.77819296 30.18851169 43.46917671 39.4006852 30 42 C18.69061087 43.35201098 9.04941714 39.70752913 0.125 32.8125 C-6.08946098 27.38732092 -13.26405137 19.64227279 -14.375 11.125 C-13.89541545 7.12846204 -12.53260567 5.09540692 -10 2 C-6.78667754 -0.35643647 -3.90425036 -0.61243143 0 0 Z " fill="#040404" transform="translate(272,238)"/>
</svg>
